<?xml version="1.0" encoding="UTF-8" standalone="no"?>
<svg
   xmlns:dc="http://purl.org/dc/elements/1.1/"
   xmlns:cc="http://creativecommons.org/ns#"
   xmlns:rdf="http://www.w3.org/1999/02/22-rdf-syntax-ns#"
   xmlns:svg="http://www.w3.org/2000/svg"
   xmlns="http://www.w3.org/2000/svg"
   xmlns:sodipodi="http://sodipodi.sourceforge.net/DTD/sodipodi-0.dtd"
   xmlns:inkscape="http://www.inkscape.org/namespaces/inkscape"
   style="fill-rule:evenodd"
   xml:space="preserve"
   version="1.1"
   clip-rule="evenodd"
   viewBox="0 0 790 620"
   id="svg3128"
   inkscape:version="0.48.4 r9939"
   width="100%"
   height="100%"
   sodipodi:docname="monitor.svg"><sodipodi:namedview
     pagecolor="#ffffff"
     bordercolor="#666666"
     borderopacity="1"
     objecttolerance="10"
     gridtolerance="10"
     guidetolerance="10"
     inkscape:pageopacity="0"
     inkscape:pageshadow="2"
     inkscape:window-width="1918"
     inkscape:window-height="1177"
     id="namedview3180"
     showgrid="false"
     inkscape:object-nodes="true"
     inkscape:snap-smooth-nodes="true"
     fit-margin-top="0"
     fit-margin-left="0"
     fit-margin-right="0"
     fit-margin-bottom="0"
     inkscape:zoom="2.243559"
     inkscape:cx="923.25755"
     inkscape:cy="-143.85195"
     inkscape:window-x="0"
     inkscape:window-y="21"
     inkscape:window-maximized="0"
     inkscape:current-layer="_597150096" /><defs
     id="defs3130"><style
       type="text/css"
       id="style3132">
    .fil18 {fill:none}
    .fil17 {fill:#090909}
    .fil11 {fill:#161616}
    .fil1 {fill:#1A1A1A}
    .fil16 {fill:#1C1C1C}
    .fil10 {fill:#1F1F1F}
    .fil2 {fill:#252525}
    .fil13 {fill:#2B2B2B}
    .fil3 {fill:#2E2828}
    .fil12 {fill:#383737}
    .fil7 {fill:#A8A8A8}
    .fil6 {fill:#B3B3B3}
    .fil20 {fill:#BAB4B4}
    .fil15 {fill:silver}
    .fil9 {fill:#C5C5C5}
    .fil19 {fill:#C9C3C3}
    .fil14 {fill:#D6D3D3}
    .fil8 {fill:#DBDBDB}
    .fil0 {fill:white}
    .fil5 {fill:silver;fill-rule:nonzero}
    .fil4 {fill:#D6D3D3;fill-rule:nonzero}
  </style></defs><g
     id="_597150096"
     transform="matrix(0.09996846,0,0,0.10634073,-54.782716,-67.796524)"
     clip-path="none"><path
       style="fill:#1a1a1a"
       inkscape:connector-curvature="0"
       id="path3138"
       d="m 4516,628.85648 h 3837 c 27,0 52,11 70,29 18,18 29,43 29,70 V 5248.856 c 0,27 -11,52 -29,70 -18,18 -43,29 -70,29 H 4813 v 785 h 1450 l 96,177 v 69 h -8 l -13,89 H 2662 l -13,-89 h -8 v -69 l 96,-177 h 1450 v -785 H 647 c -27,0 -52,-11 -70,-29 -18,-18 -29,-43 -29,-70 V 727.85648 c 0,-27 11,-52 29,-70 18,-18 43,-29 70,-29 h 3869 z"
       class="fil1" /><path
       sodipodi:nodetypes="cssssssssc"
       style="fill:#252525"
       inkscape:connector-curvature="0"
       id="path3140"
       d="m 4500,648 3852,0 c 47,0 84,37 84,84 l 0,4519 c 0,46 -37,84 -84,84 l -7704,0 c -47,0 -84,-38 -84,-84 l 0,-4519 c 0,-47 37,-84 84,-84 z"
       class="fil2" /><path
       style="fill:#2e2828"
       inkscape:connector-curvature="0"
       id="path3142"
       d="m 4500,648 h 3852 c 47,0 84,37 84,84 v 4519 c 0,46 -37,84 -84,84 H 6214 L 1791,648 h 2709 z"
       class="fil3" /><path
       style="fill:#d6d3d3;fill-rule:nonzero"
       inkscape:connector-curvature="0"
       id="path3144"
       d="M 4468,663 H 647 c -18,0 -35,8 -48,20 -12,13 -20,30 -20,48 v 4521 c 0,18 8,35 20,47 13,13 30,20 48,20 h 3821 v -245 h 32 v 277 H 647 c -27,0 -52,-11 -70,-29 -18,-18 -29,-43 -29,-70 V 731 c 0,-27 11,-52 29,-70 18,-18 43,-29 70,-29 h 3853 v 31 h -32 z"
       class="fil4" /><path
       style="fill:#c0c0c0;fill-rule:nonzero"
       inkscape:connector-curvature="0"
       id="path3146"
       d="m 4532,663 h 3821 c 18,0 35,8 48,20 12,13 20,30 20,48 v 4521 c 0,18 -8,35 -20,47 -13,13 -30,20 -48,20 H 4532 v -245 h -32 v 277 h 3853 c 27,0 52,-11 70,-29 18,-18 29,-43 29,-70 V 731 c 0,-27 -11,-52 -29,-70 -18,-18 -43,-29 -70,-29 H 4500 v 31 h 32 z"
       class="fil5" /><polygon
       style="fill:#b3b3b3"
       id="polygon3148"
       class="fil6"
       points="4500,6313 4500,6136 2737,6136 2641,6313 "
       transform="translate(0,-8.8913795)" /><polygon
       style="fill:#a8a8a8"
       id="polygon3150"
       class="fil7"
       points="4500,6313 4500,6136 6263,6136 6359,6313 "
       transform="translate(0,-8.8913795)" /><rect
       style="fill:#dbdbdb"
       id="rect3152"
       height="68.660004"
       class="fil8"
       width="1859"
       x="2641"
       y="6304.1113" /><rect
       style="fill:#c5c5c5"
       id="rect3154"
       height="68.660004"
       class="fil9"
       width="1859"
       x="4500"
       y="6304.1113" /><polygon
       style="fill:#1f1f1f"
       id="polygon3156"
       class="fil10"
       points="2662,6471 2649,6382 4500,6382 4500,6471 "
       transform="translate(0,-8.8913795)" /><polygon
       style="fill:#161616"
       id="polygon3158"
       class="fil11"
       points="6338,6471 6351,6382 4500,6382 4500,6471 "
       transform="translate(0,-8.8913795)" /><rect
       style="fill:#383737"
       id="rect3160"
       height="120"
       class="fil12"
       width="313"
       x="4187"
       y="6184.1113" /><rect
       style="fill:#2b2b2b"
       id="rect3162"
       height="120"
       class="fil13"
       width="313"
       x="4500"
       y="6184.1113" /><path
       style="fill:#d6d3d3"
       inkscape:connector-curvature="0"
       id="path3164"
       d="m 564,5074 v 178 c 0,46 37,83 83,83 H 4484 V 5074 H 564 z"
       class="fil14" /><path
       style="fill:#c0c0c0"
       inkscape:connector-curvature="0"
       id="path3166"
       d="m 8436,5074 v 178 c 0,46 -37,83 -83,83 H 4516 v -261 h 3920 z"
       class="fil15" /><rect
       style="fill:#1c1c1c"
       id="rect3168"
       height="842"
       class="fil16"
       width="313"
       x="4187"
       y="5351" /><rect
       style="fill:#090909"
       id="rect3170"
       height="842"
       class="fil17"
       width="313"
       x="4500"
       y="5351" /><rect
       style="fill:none"
       id="rect3172"
       height="197"
       class="fil18"
       width="627"
       x="4187"
       y="5407" /></g><metadata
     id="metadata3178"><rdf:RDF><cc:Work><dc:format>image/svg+xml</dc:format><dc:type
           rdf:resource="http://purl.org/dc/dcmitype/StillImage" /><cc:license
           rdf:resource="http://creativecommons.org/licenses/publicdomain/" /><dc:publisher><cc:Agent
             rdf:about="http://openclipart.org/"><dc:title>Openclipart</dc:title></cc:Agent></dc:publisher><dc:title>Simple LED Monitor</dc:title><dc:date>2013-08-26T14:35:37</dc:date><dc:description>Simple LED or LCD monitor with a thin bezel.</dc:description><dc:source>https://openclipart.org/detail/182214/simple-led-monitor-by-barrettward-182214</dc:source><dc:creator><cc:Agent><dc:title>barrettward</dc:title></cc:Agent></dc:creator><dc:subject><rdf:Bag><rdf:li>bezel</rdf:li><rdf:li>computer</rdf:li><rdf:li>lcd</rdf:li><rdf:li>led</rdf:li><rdf:li>monitor</rdf:li><rdf:li>screen</rdf:li></rdf:Bag></dc:subject></cc:Work><cc:License
         rdf:about="http://creativecommons.org/licenses/publicdomain/"><cc:permits
           rdf:resource="http://creativecommons.org/ns#Reproduction" /><cc:permits
           rdf:resource="http://creativecommons.org/ns#Distribution" /><cc:permits
           rdf:resource="http://creativecommons.org/ns#DerivativeWorks" /></cc:License></rdf:RDF></metadata></svg>